<mxfile host="app.diagrams.net" modified="2023-04-17T08:58:52.848Z" agent="Mozilla/5.0 (Windows NT 10.0; Win64; x64; rv:109.0) Gecko/20100101 Firefox/112.0" etag="CDBWyTMP0S9Vh8nEbiLT" version="21.1.8" type="github">
  <diagram name="Page-1" id="E59KO_F7_P3Ks7hckUve">
    <mxGraphModel dx="1000" dy="576" grid="0" gridSize="10" guides="1" tooltips="1" connect="1" arrows="1" fold="1" page="1" pageScale="1" pageWidth="2336" pageHeight="1654" math="0" shadow="0">
      <root>
        <mxCell id="0" />
        <mxCell id="1" parent="0" />
        <mxCell id="OdUkEbp3YpjEv7alz5c1-21" value="" style="edgeStyle=orthogonalEdgeStyle;shape=connector;rounded=0;orthogonalLoop=1;jettySize=auto;html=1;labelBackgroundColor=default;strokeColor=default;strokeWidth=1;fontFamily=Helvetica;fontSize=11;fontColor=default;endArrow=none;endFill=0;" edge="1" parent="1" source="OdUkEbp3YpjEv7alz5c1-2" target="OdUkEbp3YpjEv7alz5c1-20">
          <mxGeometry relative="1" as="geometry" />
        </mxCell>
        <mxCell id="OdUkEbp3YpjEv7alz5c1-25" value="" style="edgeStyle=orthogonalEdgeStyle;shape=connector;rounded=0;orthogonalLoop=1;jettySize=auto;html=1;labelBackgroundColor=default;strokeColor=default;strokeWidth=1;fontFamily=Helvetica;fontSize=11;fontColor=default;endArrow=none;endFill=0;" edge="1" parent="1" source="OdUkEbp3YpjEv7alz5c1-2" target="OdUkEbp3YpjEv7alz5c1-24">
          <mxGeometry relative="1" as="geometry" />
        </mxCell>
        <mxCell id="OdUkEbp3YpjEv7alz5c1-29" value="" style="edgeStyle=orthogonalEdgeStyle;shape=connector;rounded=0;orthogonalLoop=1;jettySize=auto;html=1;labelBackgroundColor=default;strokeColor=default;strokeWidth=1;fontFamily=Helvetica;fontSize=11;fontColor=default;endArrow=none;endFill=0;" edge="1" parent="1" source="OdUkEbp3YpjEv7alz5c1-2" target="OdUkEbp3YpjEv7alz5c1-28">
          <mxGeometry relative="1" as="geometry" />
        </mxCell>
        <mxCell id="OdUkEbp3YpjEv7alz5c1-32" value="" style="edgeStyle=orthogonalEdgeStyle;shape=connector;rounded=0;orthogonalLoop=1;jettySize=auto;html=1;labelBackgroundColor=default;strokeColor=default;strokeWidth=1;fontFamily=Helvetica;fontSize=14;fontColor=default;endArrow=none;endFill=0;" edge="1" parent="1" source="OdUkEbp3YpjEv7alz5c1-2" target="OdUkEbp3YpjEv7alz5c1-31">
          <mxGeometry relative="1" as="geometry" />
        </mxCell>
        <mxCell id="OdUkEbp3YpjEv7alz5c1-2" value="Customer" style="rounded=1;whiteSpace=wrap;fontSize=22;" vertex="1" parent="1">
          <mxGeometry x="1072" y="758" width="166" height="83" as="geometry" />
        </mxCell>
        <mxCell id="OdUkEbp3YpjEv7alz5c1-3" value="Address" style="rounded=1;whiteSpace=wrap;fontSize=22;" vertex="1" parent="1">
          <mxGeometry x="1087" y="463" width="136" height="83" as="geometry" />
        </mxCell>
        <mxCell id="OdUkEbp3YpjEv7alz5c1-38" value="" style="edgeStyle=orthogonalEdgeStyle;shape=connector;rounded=0;orthogonalLoop=1;jettySize=auto;html=1;labelBackgroundColor=default;strokeColor=default;strokeWidth=1;fontFamily=Helvetica;fontSize=14;fontColor=default;endArrow=none;endFill=0;" edge="1" parent="1" source="OdUkEbp3YpjEv7alz5c1-4" target="OdUkEbp3YpjEv7alz5c1-37">
          <mxGeometry relative="1" as="geometry" />
        </mxCell>
        <mxCell id="OdUkEbp3YpjEv7alz5c1-4" value="DeliveryPerson" style="rounded=1;whiteSpace=wrap;fontSize=22;" vertex="1" parent="1">
          <mxGeometry x="554" y="463" width="214" height="83" as="geometry" />
        </mxCell>
        <mxCell id="OdUkEbp3YpjEv7alz5c1-27" value="" style="edgeStyle=orthogonalEdgeStyle;shape=connector;rounded=0;orthogonalLoop=1;jettySize=auto;html=1;labelBackgroundColor=default;strokeColor=default;strokeWidth=1;fontFamily=Helvetica;fontSize=11;fontColor=default;endArrow=none;endFill=0;" edge="1" parent="1" source="OdUkEbp3YpjEv7alz5c1-5" target="OdUkEbp3YpjEv7alz5c1-20">
          <mxGeometry relative="1" as="geometry" />
        </mxCell>
        <mxCell id="OdUkEbp3YpjEv7alz5c1-35" value="" style="edgeStyle=orthogonalEdgeStyle;shape=connector;rounded=0;orthogonalLoop=1;jettySize=auto;html=1;labelBackgroundColor=default;strokeColor=default;strokeWidth=1;fontFamily=Helvetica;fontSize=14;fontColor=default;endArrow=none;endFill=0;" edge="1" parent="1" source="OdUkEbp3YpjEv7alz5c1-5" target="OdUkEbp3YpjEv7alz5c1-34">
          <mxGeometry relative="1" as="geometry" />
        </mxCell>
        <mxCell id="OdUkEbp3YpjEv7alz5c1-42" style="edgeStyle=orthogonalEdgeStyle;shape=connector;rounded=0;orthogonalLoop=1;jettySize=auto;html=1;exitX=0.5;exitY=1;exitDx=0;exitDy=0;entryX=0;entryY=0.5;entryDx=0;entryDy=0;labelBackgroundColor=default;strokeColor=default;strokeWidth=1;fontFamily=Helvetica;fontSize=14;fontColor=default;endArrow=none;endFill=0;" edge="1" parent="1" source="OdUkEbp3YpjEv7alz5c1-5" target="OdUkEbp3YpjEv7alz5c1-40">
          <mxGeometry relative="1" as="geometry">
            <Array as="points">
              <mxPoint x="661" y="1123" />
            </Array>
          </mxGeometry>
        </mxCell>
        <mxCell id="OdUkEbp3YpjEv7alz5c1-5" value="Order" style="rounded=1;whiteSpace=wrap;fontSize=22;" vertex="1" parent="1">
          <mxGeometry x="611" y="758" width="100" height="83" as="geometry" />
        </mxCell>
        <mxCell id="OdUkEbp3YpjEv7alz5c1-6" value="OrderDetails" style="rounded=1;whiteSpace=wrap;fontSize=22;" vertex="1" parent="1">
          <mxGeometry x="238" y="758" width="178" height="83" as="geometry" />
        </mxCell>
        <mxCell id="OdUkEbp3YpjEv7alz5c1-7" value="Menu" style="rounded=1;whiteSpace=wrap;fontSize=22;" vertex="1" parent="1">
          <mxGeometry x="393" y="1187" width="166" height="83" as="geometry" />
        </mxCell>
        <mxCell id="OdUkEbp3YpjEv7alz5c1-8" value="MenuItem" style="rounded=1;whiteSpace=wrap;fontSize=22;" vertex="1" parent="1">
          <mxGeometry x="250" y="1067" width="166" height="83" as="geometry" />
        </mxCell>
        <mxCell id="OdUkEbp3YpjEv7alz5c1-45" value="" style="edgeStyle=orthogonalEdgeStyle;shape=connector;rounded=0;orthogonalLoop=1;jettySize=auto;html=1;labelBackgroundColor=default;strokeColor=default;strokeWidth=1;fontFamily=Helvetica;fontSize=14;fontColor=default;endArrow=none;endFill=0;" edge="1" parent="1" source="OdUkEbp3YpjEv7alz5c1-9" target="OdUkEbp3YpjEv7alz5c1-44">
          <mxGeometry relative="1" as="geometry" />
        </mxCell>
        <mxCell id="OdUkEbp3YpjEv7alz5c1-9" value="Reservation" style="rounded=1;whiteSpace=wrap;fontSize=22;" vertex="1" parent="1">
          <mxGeometry x="1450" y="758" width="176" height="83" as="geometry" />
        </mxCell>
        <mxCell id="OdUkEbp3YpjEv7alz5c1-10" value="RestaurantTable" style="rounded=1;whiteSpace=wrap;fontSize=22;" vertex="1" parent="1">
          <mxGeometry x="1692" y="758" width="240" height="83" as="geometry" />
        </mxCell>
        <mxCell id="OdUkEbp3YpjEv7alz5c1-11" value="Employee" style="rounded=1;whiteSpace=wrap;fontSize=22;" vertex="1" parent="1">
          <mxGeometry x="1382" y="463" width="156" height="83" as="geometry" />
        </mxCell>
        <mxCell id="OdUkEbp3YpjEv7alz5c1-12" value="Feedback" style="rounded=1;whiteSpace=wrap;fontSize=22;" vertex="1" parent="1">
          <mxGeometry x="1072" y="1081" width="166" height="83" as="geometry" />
        </mxCell>
        <mxCell id="OdUkEbp3YpjEv7alz5c1-14" value="EmployeeSchedule" style="rounded=1;whiteSpace=wrap;fontSize=22;" vertex="1" parent="1">
          <mxGeometry x="1668" y="461" width="264" height="83" as="geometry" />
        </mxCell>
        <mxCell id="OdUkEbp3YpjEv7alz5c1-23" style="edgeStyle=orthogonalEdgeStyle;shape=connector;rounded=0;orthogonalLoop=1;jettySize=auto;html=1;exitX=0;exitY=0.5;exitDx=0;exitDy=0;entryX=1;entryY=0.5;entryDx=0;entryDy=0;labelBackgroundColor=default;strokeColor=default;strokeWidth=1;fontFamily=Helvetica;fontSize=11;fontColor=default;endArrow=ERzeroToMany;endFill=0;" edge="1" parent="1" source="OdUkEbp3YpjEv7alz5c1-20" target="OdUkEbp3YpjEv7alz5c1-5">
          <mxGeometry relative="1" as="geometry" />
        </mxCell>
        <mxCell id="OdUkEbp3YpjEv7alz5c1-20" value="places" style="rhombus;whiteSpace=wrap;html=1;fontSize=16;rounded=1;" vertex="1" parent="1">
          <mxGeometry x="858" y="759.5" width="80" height="80" as="geometry" />
        </mxCell>
        <mxCell id="OdUkEbp3YpjEv7alz5c1-26" style="edgeStyle=orthogonalEdgeStyle;shape=connector;rounded=0;orthogonalLoop=1;jettySize=auto;html=1;exitX=0.5;exitY=0;exitDx=0;exitDy=0;entryX=0.5;entryY=1;entryDx=0;entryDy=0;labelBackgroundColor=default;strokeColor=default;strokeWidth=1;fontFamily=Helvetica;fontSize=11;fontColor=default;endArrow=ERzeroToMany;endFill=0;" edge="1" parent="1" source="OdUkEbp3YpjEv7alz5c1-24" target="OdUkEbp3YpjEv7alz5c1-3">
          <mxGeometry relative="1" as="geometry" />
        </mxCell>
        <mxCell id="OdUkEbp3YpjEv7alz5c1-24" value="resides at" style="rhombus;whiteSpace=wrap;html=1;fontSize=16;rounded=1;" vertex="1" parent="1">
          <mxGeometry x="1096" y="596.5" width="118" height="80" as="geometry" />
        </mxCell>
        <mxCell id="OdUkEbp3YpjEv7alz5c1-30" value="" style="edgeStyle=orthogonalEdgeStyle;shape=connector;rounded=0;orthogonalLoop=1;jettySize=auto;html=1;labelBackgroundColor=default;strokeColor=default;strokeWidth=1;fontFamily=Helvetica;fontSize=11;fontColor=default;endArrow=ERzeroToMany;endFill=0;" edge="1" parent="1" source="OdUkEbp3YpjEv7alz5c1-28" target="OdUkEbp3YpjEv7alz5c1-9">
          <mxGeometry relative="1" as="geometry" />
        </mxCell>
        <mxCell id="OdUkEbp3YpjEv7alz5c1-28" value="makes" style="rhombus;whiteSpace=wrap;html=1;fontSize=16;rounded=1;" vertex="1" parent="1">
          <mxGeometry x="1300" y="759.5" width="80" height="80" as="geometry" />
        </mxCell>
        <mxCell id="OdUkEbp3YpjEv7alz5c1-33" value="" style="edgeStyle=orthogonalEdgeStyle;shape=connector;rounded=0;orthogonalLoop=1;jettySize=auto;html=1;labelBackgroundColor=default;strokeColor=default;strokeWidth=1;fontFamily=Helvetica;fontSize=14;fontColor=default;endArrow=ERzeroToMany;endFill=0;" edge="1" parent="1" source="OdUkEbp3YpjEv7alz5c1-31" target="OdUkEbp3YpjEv7alz5c1-12">
          <mxGeometry relative="1" as="geometry" />
        </mxCell>
        <mxCell id="OdUkEbp3YpjEv7alz5c1-31" value="gives" style="rhombus;whiteSpace=wrap;html=1;fontSize=16;rounded=1;" vertex="1" parent="1">
          <mxGeometry x="1115" y="922.5" width="80" height="80" as="geometry" />
        </mxCell>
        <mxCell id="OdUkEbp3YpjEv7alz5c1-36" value="" style="edgeStyle=orthogonalEdgeStyle;shape=connector;rounded=0;orthogonalLoop=1;jettySize=auto;html=1;labelBackgroundColor=default;strokeColor=default;strokeWidth=1;fontFamily=Helvetica;fontSize=14;fontColor=default;endArrow=ERzeroToMany;endFill=0;" edge="1" parent="1" source="OdUkEbp3YpjEv7alz5c1-34" target="OdUkEbp3YpjEv7alz5c1-6">
          <mxGeometry relative="1" as="geometry" />
        </mxCell>
        <mxCell id="OdUkEbp3YpjEv7alz5c1-34" value="has" style="rhombus;whiteSpace=wrap;html=1;fontSize=16;rounded=1;" vertex="1" parent="1">
          <mxGeometry x="469" y="759.5" width="80" height="80" as="geometry" />
        </mxCell>
        <mxCell id="OdUkEbp3YpjEv7alz5c1-39" value="" style="edgeStyle=orthogonalEdgeStyle;shape=connector;rounded=0;orthogonalLoop=1;jettySize=auto;html=1;labelBackgroundColor=default;strokeColor=default;strokeWidth=1;fontFamily=Helvetica;fontSize=14;fontColor=default;endArrow=ERzeroToMany;endFill=0;" edge="1" parent="1" source="OdUkEbp3YpjEv7alz5c1-37" target="OdUkEbp3YpjEv7alz5c1-5">
          <mxGeometry relative="1" as="geometry" />
        </mxCell>
        <mxCell id="OdUkEbp3YpjEv7alz5c1-37" value="delivers" style="rhombus;whiteSpace=wrap;html=1;fontSize=16;rounded=1;" vertex="1" parent="1">
          <mxGeometry x="621" y="596.5" width="80" height="80" as="geometry" />
        </mxCell>
        <mxCell id="OdUkEbp3YpjEv7alz5c1-43" style="edgeStyle=orthogonalEdgeStyle;shape=connector;rounded=0;orthogonalLoop=1;jettySize=auto;html=1;entryX=0;entryY=0.5;entryDx=0;entryDy=0;labelBackgroundColor=default;strokeColor=default;strokeWidth=1;fontFamily=Helvetica;fontSize=14;fontColor=default;endArrow=ERmandOne;endFill=0;exitX=0.952;exitY=0.493;exitDx=0;exitDy=0;exitPerimeter=0;" edge="1" parent="1" source="OdUkEbp3YpjEv7alz5c1-40" target="OdUkEbp3YpjEv7alz5c1-12">
          <mxGeometry relative="1" as="geometry">
            <mxPoint x="906" y="1175" as="sourcePoint" />
            <Array as="points">
              <mxPoint x="948" y="1122" />
            </Array>
          </mxGeometry>
        </mxCell>
        <mxCell id="OdUkEbp3YpjEv7alz5c1-40" value="&lt;div&gt;associates&lt;/div&gt;&lt;div&gt;with&lt;br&gt;&lt;/div&gt;" style="rhombus;whiteSpace=wrap;html=1;fontSize=16;rounded=1;" vertex="1" parent="1">
          <mxGeometry x="842" y="1081" width="112" height="83" as="geometry" />
        </mxCell>
        <mxCell id="OdUkEbp3YpjEv7alz5c1-46" style="edgeStyle=orthogonalEdgeStyle;shape=connector;rounded=0;orthogonalLoop=1;jettySize=auto;html=1;exitX=0.5;exitY=1;exitDx=0;exitDy=0;entryX=1;entryY=0.5;entryDx=0;entryDy=0;labelBackgroundColor=default;strokeColor=default;strokeWidth=1;fontFamily=Helvetica;fontSize=14;fontColor=default;endArrow=ERmandOne;endFill=0;" edge="1" parent="1" source="OdUkEbp3YpjEv7alz5c1-44" target="OdUkEbp3YpjEv7alz5c1-12">
          <mxGeometry relative="1" as="geometry" />
        </mxCell>
        <mxCell id="OdUkEbp3YpjEv7alz5c1-44" value="&lt;div&gt;associates&lt;/div&gt;&lt;div&gt;with&lt;br&gt;&lt;/div&gt;" style="rhombus;whiteSpace=wrap;html=1;fontSize=16;rounded=1;" vertex="1" parent="1">
          <mxGeometry x="1482" y="919.5" width="112" height="83" as="geometry" />
        </mxCell>
        <mxCell id="OdUkEbp3YpjEv7alz5c1-47" value="Inventory" style="rounded=1;whiteSpace=wrap;fontSize=22;" vertex="1" parent="1">
          <mxGeometry x="627" y="1192" width="148" height="83" as="geometry" />
        </mxCell>
        <mxCell id="OdUkEbp3YpjEv7alz5c1-48" value="Payment" style="rounded=1;whiteSpace=wrap;fontSize=22;" vertex="1" parent="1">
          <mxGeometry x="822" y="919.5" width="152" height="83" as="geometry" />
        </mxCell>
        <mxCell id="OdUkEbp3YpjEv7alz5c1-60" value="" style="edgeStyle=orthogonalEdgeStyle;shape=connector;rounded=0;orthogonalLoop=1;jettySize=auto;html=1;labelBackgroundColor=default;strokeColor=default;strokeWidth=1;fontFamily=Helvetica;fontSize=14;fontColor=default;endArrow=none;endFill=0;entryX=0.5;entryY=0;entryDx=0;entryDy=0;" edge="1" parent="1" source="OdUkEbp3YpjEv7alz5c1-49" target="OdUkEbp3YpjEv7alz5c1-59">
          <mxGeometry relative="1" as="geometry">
            <Array as="points">
              <mxPoint x="782" y="636" />
            </Array>
          </mxGeometry>
        </mxCell>
        <mxCell id="OdUkEbp3YpjEv7alz5c1-49" value="Discount" style="rounded=1;whiteSpace=wrap;fontSize=22;" vertex="1" parent="1">
          <mxGeometry x="840" y="595" width="116" height="83" as="geometry" />
        </mxCell>
        <mxCell id="OdUkEbp3YpjEv7alz5c1-53" value="" style="edgeStyle=orthogonalEdgeStyle;shape=connector;rounded=0;orthogonalLoop=1;jettySize=auto;html=1;labelBackgroundColor=default;strokeColor=default;strokeWidth=1;fontFamily=Helvetica;fontSize=14;fontColor=default;endArrow=none;endFill=0;exitX=0.954;exitY=0.511;exitDx=0;exitDy=0;exitPerimeter=0;" edge="1" parent="1" source="OdUkEbp3YpjEv7alz5c1-52" target="OdUkEbp3YpjEv7alz5c1-2">
          <mxGeometry relative="1" as="geometry">
            <Array as="points">
              <mxPoint x="1084" y="883" />
            </Array>
          </mxGeometry>
        </mxCell>
        <mxCell id="OdUkEbp3YpjEv7alz5c1-55" value="" style="edgeStyle=orthogonalEdgeStyle;shape=connector;rounded=0;orthogonalLoop=1;jettySize=auto;html=1;labelBackgroundColor=default;strokeColor=default;strokeWidth=1;fontFamily=Helvetica;fontSize=14;fontColor=default;endArrow=ERzeroToMany;endFill=0;entryX=0.75;entryY=0;entryDx=0;entryDy=0;" edge="1" parent="1" source="OdUkEbp3YpjEv7alz5c1-52" target="OdUkEbp3YpjEv7alz5c1-48">
          <mxGeometry relative="1" as="geometry">
            <mxPoint x="972" y="927" as="targetPoint" />
          </mxGeometry>
        </mxCell>
        <mxCell id="OdUkEbp3YpjEv7alz5c1-52" value="makes" style="rhombus;whiteSpace=wrap;html=1;fontSize=16;rounded=1;" vertex="1" parent="1">
          <mxGeometry x="979" y="842.5" width="80" height="80" as="geometry" />
        </mxCell>
        <mxCell id="OdUkEbp3YpjEv7alz5c1-57" value="" style="edgeStyle=orthogonalEdgeStyle;shape=connector;rounded=0;orthogonalLoop=1;jettySize=auto;html=1;labelBackgroundColor=default;strokeColor=default;strokeWidth=1;fontFamily=Helvetica;fontSize=14;fontColor=default;endArrow=ERzeroToMany;endFill=0;exitX=0;exitY=0.5;exitDx=0;exitDy=0;" edge="1" parent="1" source="OdUkEbp3YpjEv7alz5c1-56">
          <mxGeometry relative="1" as="geometry">
            <mxPoint x="688" y="842" as="targetPoint" />
            <Array as="points">
              <mxPoint x="688" y="883" />
            </Array>
          </mxGeometry>
        </mxCell>
        <mxCell id="OdUkEbp3YpjEv7alz5c1-58" style="edgeStyle=orthogonalEdgeStyle;shape=connector;rounded=0;orthogonalLoop=1;jettySize=auto;html=1;exitX=1;exitY=0.5;exitDx=0;exitDy=0;entryX=0.25;entryY=0;entryDx=0;entryDy=0;labelBackgroundColor=default;strokeColor=default;strokeWidth=1;fontFamily=Helvetica;fontSize=14;fontColor=default;endArrow=none;endFill=0;" edge="1" parent="1" source="OdUkEbp3YpjEv7alz5c1-56" target="OdUkEbp3YpjEv7alz5c1-48">
          <mxGeometry relative="1" as="geometry" />
        </mxCell>
        <mxCell id="OdUkEbp3YpjEv7alz5c1-56" value="processes" style="rhombus;whiteSpace=wrap;html=1;fontSize=16;rounded=1;" vertex="1" parent="1">
          <mxGeometry x="720" y="842.5" width="104" height="80" as="geometry" />
        </mxCell>
        <mxCell id="OdUkEbp3YpjEv7alz5c1-61" style="edgeStyle=orthogonalEdgeStyle;shape=connector;rounded=0;orthogonalLoop=1;jettySize=auto;html=1;exitX=0;exitY=0.5;exitDx=0;exitDy=0;entryX=0.75;entryY=0;entryDx=0;entryDy=0;labelBackgroundColor=default;strokeColor=default;strokeWidth=1;fontFamily=Helvetica;fontSize=14;fontColor=default;endArrow=ERzeroToMany;endFill=0;" edge="1" parent="1" source="OdUkEbp3YpjEv7alz5c1-59" target="OdUkEbp3YpjEv7alz5c1-5">
          <mxGeometry relative="1" as="geometry" />
        </mxCell>
        <mxCell id="OdUkEbp3YpjEv7alz5c1-59" value="applies to" style="rhombus;whiteSpace=wrap;html=1;fontSize=16;rounded=1;" vertex="1" parent="1">
          <mxGeometry x="730" y="668" width="104" height="80" as="geometry" />
        </mxCell>
      </root>
    </mxGraphModel>
  </diagram>
</mxfile>
